<?xml version="1.0" encoding="utf-8"?>
<!-- Generator: Adobe Illustrator 21.0.0, SVG Export Plug-In . SVG Version: 6.00 Build 0)  -->
<svg version="1.1" id="Capa_1" xmlns="http://www.w3.org/2000/svg" xmlns:xlink="http://www.w3.org/1999/xlink" x="0px" y="0px"
	 viewBox="0 0 16 16" style="enable-background:new 0 0 16 16;" xml:space="preserve">
<style type="text/css">
	.st0{fill:#333333;}
</style>
<path class="st0" d="M8.1,4.6c0.5,0,1.5-0.7,2.8-0.7c2.3,0,3.1,1.6,3.1,1.6s-1.7,0.9-1.7,3c0,2.4,2.2,3.3,2.2,3.3S13,16,11,16
	c-0.9,0-1.7-0.6-2.6-0.6c-1,0-2,0.6-2.6,0.6c-1.9,0-4.2-4-4.2-7.3c0-3.2,2-4.9,3.9-4.9C6.5,3.9,7.5,4.6,8.1,4.6L8.1,4.6z M8.7,1.4
	C9.7,0,11.2,0,11.2,0s0.2,1.3-0.8,2.6C9.3,3.9,8,3.7,8,3.7S7.7,2.6,8.7,1.4L8.7,1.4z"/>
</svg>
